<?xml version="1.0" encoding="UTF-8" standalone="no"?>
<!-- Created with Inkscape (http://www.inkscape.org/) -->

<svg
   xmlns:dc="http://purl.org/dc/elements/1.1/"
   xmlns:cc="http://creativecommons.org/ns#"
   xmlns:rdf="http://www.w3.org/1999/02/22-rdf-syntax-ns#"
   xmlns:svg="http://www.w3.org/2000/svg"
   xmlns="http://www.w3.org/2000/svg"
   xmlns:sodipodi="http://sodipodi.sourceforge.net/DTD/sodipodi-0.dtd"
   xmlns:inkscape="http://www.inkscape.org/namespaces/inkscape"
   width="210mm"
   height="297mm"
   viewBox="0 0 210 297"
   version="1.1"
   id="svg8"
   inkscape:version="0.92.1 r15371"
   sodipodi:docname="logo.svg">
  <defs
     id="defs2" />
  <sodipodi:namedview
     id="base"
     pagecolor="#ffffff"
     bordercolor="#666666"
     borderopacity="1.0"
     inkscape:pageopacity="0.0"
     inkscape:pageshadow="2"
     inkscape:zoom="0.35"
     inkscape:cx="400"
     inkscape:cy="674.28571"
     inkscape:document-units="mm"
     inkscape:current-layer="layer1"
     showgrid="false"
     inkscape:window-width="1440"
     inkscape:window-height="838"
     inkscape:window-x="-8"
     inkscape:window-y="-8"
     inkscape:window-maximized="1" />
  <metadata
     id="metadata5">
    <rdf:RDF>
      <cc:Work
         rdf:about="">
        <dc:format>image/svg+xml</dc:format>
        <dc:type
           rdf:resource="http://purl.org/dc/dcmitype/StillImage" />
        <dc:title></dc:title>
      </cc:Work>
    </rdf:RDF>
  </metadata>
  <g
     inkscape:label="Capa 1"
     inkscape:groupmode="layer"
     id="layer1">
    <path
       style="fill:#0000ff;stroke-width:0.26458332"
       id="path3700"
       d="m 139.30849,57.942913 c -1.95521,0.499158 -3.84071,1.259531 -5.74188,1.938234 -0.76822,0.537697 -1.7473,0.611976 -2.57838,0.969082 -0.78255,0.336256 -1.5144,0.900901 -2.29422,1.270386 17.05599,-9.072615 9.53759,-6.126506 6.43582,-3.335147 -0.97033,0.695132 -1.60495,1.592265 -2.18344,2.612689 -0.6266,1.252302 -0.8294,2.653649 -1.25569,3.979384 -0.601,1.197655 -0.86796,2.484204 -1.12835,3.784536 -0.34512,1.29081 -0.68716,2.580786 -1.04287,3.868719 -0.44214,1.215591 -0.79339,2.469161 -1.26391,3.674457 -0.49056,1.25413 -0.97681,2.496582 -1.26097,3.815347 -0.24776,1.245724 -0.67982,2.435024 -1.16359,3.604247 -0.32324,1.167714 -0.70344,2.32189 -1.01554,3.493598 -0.22857,1.296111 -0.35309,2.592432 -0.65759,3.875479 -0.29062,1.354042 -0.63012,2.706645 -1.12485,4.001611 -0.53714,1.225748 -0.7055,2.54169 -0.80608,3.862382 -0.0817,1.483843 -0.0734,2.970733 -0.0727,4.456263 0.086,1.37742 -0.28633,2.7109 -0.49828,4.05881 -0.28832,1.23233 -0.60983,2.45218 -0.87438,3.69181 -0.33994,1.16767 -0.65575,2.33411 -1.06069,3.48093 -0.42104,1.23489 -0.4261,2.5481 -0.70812,3.81264 -0.36033,1.25032 -0.41735,2.55466 -0.72566,3.8144 -0.19112,1.24504 -0.86745,2.28234 -1.40492,3.38708 -0.55163,1.38875 -0.86921,2.85769 -1.47773,4.22219 -0.71702,1.43792 -1.38213,2.91193 -1.82919,4.45751 -0.35561,1.30313 -0.82755,2.56413 -1.34882,3.80771 -0.48137,1.3076 -0.85381,2.64394 -1.20031,3.99175 -0.45567,1.49025 -0.9783,2.95445 -1.42781,4.44726 -0.47742,1.28424 -0.8571,2.60286 -1.23973,3.91792 -0.38758,1.41708 -1.15842,2.68593 -1.8157,3.99029 -0.57497,1.31558 -1.38114,2.51375 -1.95151,3.82859 -0.45563,1.11936 -0.9134,2.23587 -1.46747,3.31048 -0.75471,0.89347 -0.9932,2.01209 -1.38692,3.07764 -0.50531,1.10497 -1.02879,2.22421 -1.72642,3.22389 -0.80241,0.99652 -1.566141,2.02399 -2.34999,3.03606 -0.811757,1.00068 -0.938482,2.28035 -1.28864,3.47324 -0.42654,1.48136 -1.168027,2.75248 -2.180714,3.89989 -1.193337,1.26354 -2.709381,2.13671 -4.153538,3.07611 -28.402872,16.19854 -0.731681,0.42709 -1.410104,0.77878 -3.512177,1.82067 -6.891658,3.88669 -10.329725,5.84371 -0.669409,0.38105 -1.26011,0.72076 -1.984851,0.99359 -1.056807,0.88245 -2.426089,0.90134 -3.665705,1.31539 -1.439838,0.44692 -2.944431,0.56687 -4.441158,0.64405 -1.794041,0.0476 -3.5887,0.04 -5.383146,0.0375 -1.904397,-0.003 -3.808812,-0.003 -5.713201,-0.01 -1.752512,0.0886 -3.42919,-0.42836 -5.097306,-0.87465 -1.484373,-0.4585 -3.016626,-0.83633 -4.483658,-1.35574 -1.52422,-0.71953 -3.048178,-1.43422 -4.469831,-2.34408 -1.466192,-0.78954 -2.949443,-1.56049 -4.337331,-2.48565 -1.268444,-0.76261 -2.514169,-1.55091 -3.728169,-2.39803 -1.215282,-1.00223 -2.525099,-1.88808 -3.682297,-2.95797 -1.119449,-0.81576 -1.824,-2.05067 -2.525678,-3.21906 -0.960932,-1.512 -1.937398,-3.01212 -2.791183,-4.5886 -0.798703,-1.63792 -1.312129,-3.39104 -1.897328,-5.11069 -0.647912,-1.62352 -0.871612,-3.33843 -1.011484,-5.0665 -0.243724,-1.84223 -0.520503,-3.67647 -0.881828,-5.499 -0.416073,-1.97603 -0.470054,-3.99946 -0.734412,-5.99418 -0.280954,-1.60876 -0.855742,-3.13876 -1.178656,-4.74071 -0.144553,-1.73852 -0.481803,-3.44736 -0.751204,-5.16864 -0.154784,-0.66346 -0.359911,-1.31318 -0.543668,-1.96888 0,0 9.855576,-5.35777 9.855576,-5.35777 v 0 c 0.187192,0.70215 0.398679,1.39666 0.581623,2.1 0.241498,1.71103 0.625157,3.39804 0.740251,5.12502 0.286401,1.63004 0.867571,3.17135 1.180907,4.7918 0.313997,1.97011 0.249499,3.9903 0.691994,5.94703 0.388659,1.86349 0.661532,3.73796 0.963961,5.61785 0.103876,1.63562 0.279099,3.26514 0.881177,4.80558 0.582041,1.65821 1.028602,3.37042 1.782601,4.96501 0.84705,1.55975 1.849969,3.02469 2.804213,4.51944 0.659656,1.07866 1.341577,2.16565 2.366245,2.93525 1.143418,1.01115 2.369831,1.9259 3.598151,2.8302 1.21938,0.81533 2.445599,1.61647 3.696938,2.38234 1.408687,0.87476 2.87646,1.64581 4.313216,2.47136 1.388327,0.81309 2.838384,1.53444 4.342596,2.10788 1.48327,0.42763 2.932803,0.95958 4.434779,1.31793 1.605333,0.42128 3.238164,0.7398 4.908547,0.65482 1.906408,-0.004 3.812829,0.002 5.719236,0.003 1.788539,-0.004 3.580038,0.002 5.365081,-0.12276 1.463564,-0.135 2.909496,-0.37412 4.309716,-0.83625 1.271367,-0.30786 2.423612,-0.80473 3.570316,-1.43234 0.329285,-0.16685 3.648022,-2.00807 1.949794,-1.01136 -2.951218,1.7321 -11.893613,6.77226 -8.879845,5.15143 2.08712,-1.12247 23.268292,-13.45533 1.436036,-0.76427 1.471618,-0.84149 2.887716,-1.79459 4.254358,-2.79547 1.03111,-1.0199 1.905179,-2.00038 2.359022,-3.41157 0.401767,-1.29104 0.548367,-2.59874 1.140219,-3.81029 0.701786,-1.05725 1.466924,-2.10967 2.358192,-3.01499 0.118943,-0.17621 0.237889,-0.35242 0.356835,-0.52864 0.131919,-0.14769 0.282893,-0.28035 0.395756,-0.44307 0.432972,-0.62424 0.513257,-1.44816 1.081217,-1.99334 0.130368,-0.35699 0.318297,-0.69254 0.431451,-1.05535 0.241527,-0.77441 0.27563,-1.61651 0.836898,-2.26723 0.794816,-0.8864 1.022011,-2.05044 1.601198,-3.07056 0.435697,-1.41943 1.267544,-2.60199 1.918009,-3.92523 0.576739,-1.30354 1.326526,-2.51456 1.90059,-3.80709 0.331017,-1.35333 0.758954,-2.68398 1.194863,-4.00458 0.608298,-1.4045 0.871108,-2.9658 1.468148,-4.38175 0.42846,-1.33671 0.65724,-2.73822 1.13885,-4.06025 0.42193,-1.26237 1.05458,-2.43425 1.4361,-3.71704 0.37556,-1.64508 1.02692,-3.15185 1.69777,-4.69257 0.80325,-1.2445 1.07953,-2.71184 1.51859,-4.113 0.11669,-0.3414 0.30042,-0.94645 0.49591,-1.26509 0.38582,-0.62889 0.88525,-1.20461 0.9598,-1.98914 0.36596,-1.25224 0.47792,-2.5152 0.73642,-3.79493 0.34864,-1.28226 0.42216,-2.57301 0.67234,-3.87836 0.33417,-1.16554 0.8157,-2.26499 1.07435,-3.45552 0.43877,-1.14047 0.38518,-2.43617 0.95523,-3.54948 0.15833,-1.31994 0.56348,-2.60199 0.5816,-3.92685 -0.003,-1.50528 -0.0128,-3.01111 0.0357,-4.51584 0.066,-1.40953 0.15596,-2.83574 0.6419,-4.17469 0.50669,-1.24625 0.96593,-2.513578 1.19345,-3.846663 0.28377,-1.291891 0.61607,-2.540045 0.65803,-3.874476 0.23807,-1.240441 0.74622,-2.376437 0.94732,-3.622582 0.38286,-1.166551 0.96762,-2.240063 1.26781,-3.441034 0.21644,-1.392758 0.6213,-2.699768 1.14698,-4.002058 0.47208,-1.182346 0.79654,-2.400652 1.34418,-3.556389 0.30753,-1.301935 0.7096,-2.57325 1.02328,-3.872796 0.44204,-1.275358 0.36373,-2.713537 1.07959,-3.913584 0.6462,-1.284727 0.72348,-2.72473 1.20687,-4.067905 0.52976,-1.143096 1.01907,-2.202024 1.98884,-3.028101 1.57511,-1.182735 -0.72982,0.591307 0.85865,-0.786278 3.2789,-2.843607 10.65558,-4.324099 11.86674,-7.066897 1.59395,-0.836628 3.25281,-1.492104 4.93797,-2.125215 1.92084,-0.700574 3.85923,-1.361744 5.82943,-1.909813 0,0 -8.89088,6.845557 -8.89088,6.845557 z"
       inkscape:connector-curvature="0" />
    <path
       style="fill:#0000ff;stroke-width:0.26458332"
       id="path3702"
       d="m 81.524971,154.60567 c 2.130317,0.0447 4.26129,0.0204 6.3919,0.0233 1.865878,-0.002 3.731744,-0.009 5.597617,-0.0131 1.96636,0.005 3.932719,0.013 5.899087,0.0127 2.039825,-0.009 4.079645,0 6.119475,-8e-4 1.80039,-0.004 3.60078,-0.01 5.40117,-0.0128 1.53256,-0.002 3.06512,-0.003 4.59767,-0.003 1.50871,-8e-5 3.01741,0 4.52611,3e-5 1.51138,3e-5 3.02276,4e-5 4.53414,4e-5 0.9521,-0.001 1.90415,0.006 2.85614,-0.01 0,0 -9.09003,6.60429 -9.09003,6.60429 v 0 c -0.94322,-0.016 -1.88651,-0.008 -2.82984,-0.01 -1.51142,1e-5 -3.02284,1e-5 -4.53426,4e-5 -1.50873,4e-5 -3.01746,1.1e-4 -4.52619,4e-5 -1.53008,-1.7e-4 -3.06016,-2.7e-4 -4.59023,-0.003 -1.78864,-0.003 -3.577263,-0.009 -5.365896,-0.0128 -2.039049,-7.9e-4 -4.078097,0.008 -6.117143,-7.9e-4 -1.978009,-2.7e-4 -3.95601,0.007 -5.934009,0.0127 -1.853808,-0.004 -3.707609,-0.0113 -5.561422,-0.0131 -2.151949,0.003 -4.304231,-0.021 -6.455902,0.0233 0,0 9.081613,-6.59817 9.081613,-6.59817 z"
       inkscape:connector-curvature="0" />
    <path
       style="fill:#0000ff;stroke-width:0.26458332"
       id="path3704"
       d="m 23.826232,64.16767 c -16.8935503,10.643338 -7.826292,4.325249 -3.997567,1.741093 4.495813,-2.818828 9.136156,-5.450435 13.77168,-8.007871 0.119528,-0.06594 2.48771,-0.921896 2.590815,-0.959413 2.132354,-0.899385 4.246677,-1.843921 6.379128,-2.744052 1.544934,-0.737127 3.225956,-1.061059 4.828681,-1.616673 -1.18205,0.247763 3.674469,-1.834793 2.552583,-1.177714 -16.481546,9.653122 -11.517228,6.618666 -8.430802,4.725329 7.597058,-6.22904 7.178669,-4.826312 12.194362,-6.256216 0.752544,-0.21454 1.468472,-0.522007 2.23025,-0.72082 1.027414,0.0213 1.701961,-0.708895 2.573195,-1.076666 0.233452,-0.09855 0.482883,-0.153845 0.724323,-0.230767 0.246205,-0.108146 0.492411,-0.216289 0.738613,-0.324435 1.571689,-0.498861 3.153672,-0.995447 4.761418,-1.372648 2.179434,-0.331078 4.394317,-0.327141 6.593872,-0.367408 1.864796,-0.02871 3.729855,-0.02839 5.594821,-0.02781 1.675675,-0.369705 3.381777,-0.543854 5.092506,-0.638657 2.012485,-0.07692 4.026382,-0.100277 6.040123,-0.111977 1.944031,-0.08517 3.854204,0.03723 5.779415,0.281067 2.100305,0.264121 4.213686,0.387517 6.328432,0.450088 1.62178,0.03837 3.2441,0.02617 4.86617,0.03346 1.85927,-0.165296 3.61636,0.318241 5.39142,0.785736 1.65517,0.44659 3.35935,0.607872 5.06544,0.687919 1.57406,-0.09724 3.08136,0.197077 4.62161,0.455642 1.49729,0.289721 3.03603,0.159559 4.52466,0.463343 1.45991,0.219879 2.84856,0.725329 4.22765,1.24061 2.1571,0.817489 4.33473,1.575546 6.44325,2.520529 1.62868,0.744665 3.24787,1.526522 4.83194,2.367516 1.17052,0.745675 2.40988,1.364631 3.58685,2.097222 0,0 -9.37357,6.052916 -9.37357,6.052916 v 0 c -1.16876,-0.703117 -2.36953,-1.350026 -3.56035,-2.015041 -1.58113,-0.78636 -3.14071,-1.617911 -4.75169,-2.339311 -2.11245,-0.909372 -4.27473,-1.670735 -6.45229,-2.407517 -1.35223,-0.434705 -2.68518,-0.930381 -4.11159,-1.068488 -1.51377,-0.138703 -3.03853,-0.186471 -4.53516,-0.479021 -1.51133,-0.252764 -3.01982,-0.331697 -4.55138,-0.365707 -1.74361,-0.141909 -3.47245,-0.401881 -5.16039,-0.874598 -1.728847,-0.426204 -3.459701,-0.665179 -5.246638,-0.546905 -1.628201,0.006 -3.256974,-0.0046 -4.883902,-0.07531 -2.121204,-0.107022 -4.236574,-0.291201 -6.346235,-0.537978 -1.907926,-0.192521 -3.818064,-0.171611 -5.734132,-0.150926 -1.995749,0.0085 -3.993935,0.01802 -5.985187,0.166902 -1.727734,0.159869 -3.434135,0.483282 -5.164484,0.586338 -1.842897,-0.007 -3.685966,-0.01815 -5.528741,0.01061 -2.171311,0.04863 -4.373197,0.07398 -6.489959,0.614157 -1.568897,0.444896 -3.159077,0.849452 -4.657524,1.502341 -1.365827,0.560636 -2.648299,1.298773 -4.131159,1.532191 -4.268653,1.338096 -12.037195,4.294698 4.912172,-3.880884 -4.457544,2.472385 -8.678518,5.463828 -13.435695,7.323587 -1.618631,0.44659 -3.183565,1.031092 -4.728887,1.688756 -2.1009,0.924105 -4.227163,1.788221 -6.350381,2.659483 -3.767039,1.492472 -9.084925,4.803357 5.822505,-3.780885 0.72752,-0.418931 -1.42453,0.889296 -2.150808,1.31037 -0.313539,0.181779 -0.62923,0.35982 -0.943843,0.539732 -4.957613,3.32509 -9.420998,7.027801 -15.135266,9.333729 0,0 8.769746,-7.014966 8.769746,-7.014966 z"
       inkscape:connector-curvature="0" />
    <path
       style="fill:#0000ff;stroke-width:0.26458332"
       id="path3706"
       d="m 143.51306,56.331863 c 1.91913,0.01966 3.81368,0.354962 5.64787,0.898186 1.53518,0.600263 2.98348,1.39097 4.31468,2.361131 1.18767,0.746096 2.111,1.823418 3.17714,2.722144 0.98406,0.953464 2.00003,1.90249 3.09772,2.726079 1.09489,1.024761 2.11968,2.094034 3.21448,3.116474 0.76961,0.856851 1.44041,1.806977 2.26772,2.609406 0.871,0.861385 1.68548,1.767165 2.59679,2.58927 1.11393,1.145712 2.0102,2.464647 2.95914,3.742709 1.04429,1.261369 1.95576,2.612498 2.90515,3.941127 0.68308,0.958345 1.33623,1.928532 1.94803,2.936243 0.64654,1.138994 1.25136,2.278708 1.94635,3.391239 0.73868,1.356219 1.369,2.766258 2.0622,4.145322 0.61837,1.548164 1.40306,3.019859 2.06602,4.547796 0.47353,1.397381 0.80132,2.83796 1.18714,4.263141 0.26302,1.39373 0.48432,2.7892 0.77004,4.17998 0.30831,1.51162 0.39733,3.05273 0.45156,4.59058 0.039,1.51812 0.0338,3.03692 0.0325,4.5554 -0.13071,1.50238 -0.3392,3.01678 -0.75714,4.46864 -0.30868,1.1876 -0.89176,2.2621 -1.20125,3.44846 -0.37436,1.18876 -0.68793,2.38209 -0.94927,3.60107 -0.36669,1.25875 -1.17558,2.2985 -1.81178,3.42322 -0.6313,0.94889 -1.08448,1.99474 -1.75872,2.91633 -0.58134,0.95028 -1.4037,1.63618 -2.26443,2.31067 -3.11397,3.35146 -8.24192,5.13962 -11.70456,7.33234 -2.97483,1.88382 6.10328,-3.51331 9.15493,-5.26997 -3.92359,3.24436 -8.42807,5.24768 -12.9689,7.83786 2.9752,-1.70499 5.94744,-3.41518 8.92561,-5.11499 0.21391,-0.12209 -0.41856,0.25992 -0.63262,0.38171 -3.41557,1.94323 -6.81176,3.92137 -10.25604,5.81323 -0.58466,0.32114 -1.44368,0.35258 -2.07966,0.5721 -1.4261,0.3656 -2.86003,0.62081 -4.24705,1.12982 -3.42099,2.46773 2.44907,-1.77675 9.20237,-5.71631 0.007,-0.004 1.19439,0.83432 1.63852,1.09112 1.21125,0.44178 2.07309,1.48503 2.91228,2.42331 0.81294,1.06052 1.65859,2.09545 2.47666,3.15216 0.5638,1.02139 1.35748,1.88007 1.9257,2.89546 0.63297,1.2312 1.24195,2.46635 1.92704,3.6695 0.50427,1.21769 1.06822,2.40557 1.63566,3.5961 0.73871,1.26376 1.1516,2.66702 1.69483,4.01673 0.35496,1.22869 0.85775,2.40611 1.18348,3.64357 0.27122,1.41193 0.64492,2.80158 1.07056,4.17403 0.47253,1.48894 0.61008,3.04697 0.94229,4.56744 0.39108,1.59036 0.51399,3.2184 0.58378,4.84849 0.0628,1.83403 0.0503,3.66955 0.0551,5.5044 0.004,1.62506 0.005,3.25012 0.005,4.87519 0.0583,1.45171 0.002,2.87394 -0.28319,4.29793 -0.42598,1.55199 -0.92459,3.08404 -1.35489,4.63566 -0.34336,1.615 -0.6331,3.23787 -1.07118,4.83177 -0.48998,1.30037 -0.85157,2.64234 -1.25406,3.97138 -0.4953,1.46732 -1.1801,2.85356 -1.71256,4.30973 -0.48556,1.40906 -1.24721,2.68078 -1.93641,3.99357 -0.97038,1.74141 -1.93279,3.48796 -3.05356,5.13792 -1.13651,1.42388 -2.06527,2.98791 -3.17017,4.43401 -1.2537,1.72337 -2.82215,3.12473 -4.43544,4.4938 -1.40284,1.15658 -2.85947,2.24887 -4.12927,3.55393 -1.06739,1.05214 -2.35183,1.84366 -3.54716,2.73707 -34.02685,19.57019 6.23607,-3.4635 -1.63179,1.03228 -3.38843,1.93619 -6.73702,3.94568 -10.18303,5.77744 -3.09768,1.64661 6.09098,-3.48248 9.13761,-5.22173 0.15059,-0.086 -0.29964,0.17458 -0.44947,0.26187 -0.43355,0.3789 -0.84356,0.78343 -1.34459,1.07611 -3.37955,1.97419 -6.77417,3.92245 -10.16033,5.88527 -0.20317,0.11778 -0.81132,0.47343 -0.60765,0.35651 3.00056,-1.72249 5.99891,-3.44883 8.99836,-5.17325 -3.70404,2.53882 -7.90669,4.70544 -11.68639,6.82553 -0.70503,0.39546 -1.60885,0.53518 -2.36257,0.82725 -1.52181,0.67079 -3.11973,1.06755 -4.70949,1.53517 -1.83477,0.5378 -3.74724,0.66844 -5.64621,0.77019 -1.93884,0.25208 -3.77863,0.88199 -5.70438,1.21096 -1.73558,0.27502 -3.49326,0.33106 -5.24688,0.35893 -1.5317,0.0137 -3.06349,0.006 -4.59523,0.002 -1.89427,-0.0212 -3.78864,-0.0176 -5.68298,-0.0137 -2.320267,-0.004 -4.640467,-0.0242 -6.960786,-0.0215 -2.149497,0.01 -4.298898,0.0217 -6.448407,0.0137 -2.200113,-0.002 -4.400214,-0.006 -6.600325,8e-5 -2.353614,-0.0744 -4.683228,0.006 -7.022819,0.24555 -2.369278,0.16277 -4.685681,0.67624 -7.03857,0.97294 -1.599679,0.19469 -3.209483,0.26749 -4.819513,0.29311 0,0 9.020588,-6.59229 9.020588,-6.59229 v 0 c 1.577679,-0.0629 3.155638,-0.14841 4.721048,-0.36598 2.343359,-0.33108 4.670652,-0.77862 7.037757,-0.92138 2.370516,-0.21423 4.74208,-0.2005 7.120935,-0.18494 2.200048,0.006 4.400082,0.002 6.600132,5e-5 2.137048,-0.008 4.27398,0.004 6.41102,0.0135 2.3398,0.003 4.6795,-0.0177 7.01925,-0.0204 1.90268,0.006 3.80535,0.0112 5.70801,-0.002 1.52418,0.003 3.04861,0.0117 4.57256,-0.0209 1.71157,-0.0527 3.42604,-0.15166 5.10964,-0.48617 1.92569,-0.4042 3.81578,-1.00943 5.79549,-1.10782 1.86526,-0.14359 3.72055,-0.3852 5.50797,-0.96516 1.59005,-0.44302 3.12006,-1.03341 4.66631,-1.60814 0.54021,-0.1902 1.00365,-0.33953 1.52488,-0.57683 0.25014,-0.11389 0.97304,-0.51085 0.73604,-0.37166 -15.53984,9.12691 -10.81189,6.21197 -7.44751,4.32757 32.63847,-19.37599 -6.07368,3.79618 3.12317,-2.04558 2.77701,-3.45067 0.95081,-1.29714 10.5087,-6.27128 3.10218,-1.61444 -6.05555,3.50002 -9.07929,5.25698 -0.1765,0.10255 0.36097,-0.19093 0.53736,-0.29366 3.377,-1.96677 6.75529,-3.93141 10.1226,-5.91474 2.98769,-1.75974 -5.98918,3.49599 -8.98377,5.24398 1.24156,-0.80827 2.39158,-1.74564 3.63207,-2.56371 0.78125,-0.74816 0.39649,-0.34495 1.14713,-1.21641 1.06045,-1.06632 0.3394,-0.20079 1.49559,-1.18541 1.62416,-1.38315 -0.27086,-0.0703 1.49761,-1.2206 0.76453,-0.7158 1.61594,-1.29553 2.3959,-1.98943 0.89521,-0.79643 0.65401,-0.68617 1.42892,-1.56529 0.21958,-0.24911 0.45654,-0.48234 0.68482,-0.72351 1.06666,-1.47917 2.10996,-2.95953 3.19735,-4.42132 1.17423,-1.57367 2.13923,-3.2724 3.0744,-4.996 0.71004,-1.2797 1.46092,-2.52452 1.96466,-3.89257 0.6662,-1.3511 1.01958,-2.85982 1.77313,-4.17963 0.35578,-1.36216 0.77853,-2.70274 1.22244,-4.03418 0.65888,-1.49839 0.81619,-3.1732 1.13764,-4.76425 0.38315,-1.53757 0.81986,-3.06761 1.34492,-4.55967 0.2813,-1.37131 0.5515,-2.69157 0.40364,-4.10847 0.003,-1.62861 0.008,-3.25722 0.0164,-4.88581 0.006,-1.82081 0.007,-3.64184 -0.0382,-5.46224 -0.0582,-1.56431 -0.15208,-3.13268 -0.5077,-4.66288 -0.33641,-1.49218 -0.49201,-3.00877 -0.89757,-4.48518 -0.43456,-1.38811 -0.85991,-2.78611 -1.12457,-4.21713 -0.2833,-1.20116 -0.79987,-2.32107 -1.10575,-3.51574 -0.52297,-1.33166 -0.90916,-2.71904 -1.65593,-3.95181 -0.55935,-1.16675 -1.13871,-2.31921 -1.59523,-3.53044 -0.67798,-1.20795 -1.29293,-2.44388 -1.95007,-3.66242 -0.53799,-0.96332 -1.30689,-1.77814 -1.83236,-2.75317 -0.80473,-1.02915 -1.5896,-2.07563 -2.42563,-3.07785 -0.81732,-0.86966 -1.62566,-1.69784 -2.75288,-2.15654 -4.74739,-3.09768 -3.30719,-5.24872 7.47588,-8.3416 1.40994,-0.37654 2.84103,-0.66669 4.23209,-1.11127 0.48497,-0.1355 0.89008,-0.23401 1.35698,-0.41971 0.21205,-0.0843 0.81984,-0.39924 0.62315,-0.28353 -2.97814,1.75198 -5.9827,3.45865 -8.97049,5.19411 -0.21369,0.12413 0.43207,-0.24001 0.64811,-0.36002 3.41734,-1.97485 6.83469,-3.9497 10.25203,-5.92454 -2.95281,1.71186 -5.90488,3.425 -8.85844,5.13559 -0.22982,0.13311 0.45366,-0.27674 0.68724,-0.40314 0.55919,-0.30262 1.14524,-0.5373 1.58728,-1.01787 0.13135,-0.1428 0.23259,-0.31062 0.34889,-0.46593 3.35646,-1.95573 6.68195,-3.96561 10.06939,-5.86718 3.06848,-1.72253 -6.07266,3.5572 -9.1124,5.32997 -0.15299,0.0892 0.31253,-0.17012 0.45203,-0.27925 0.14415,-0.11277 0.26259,-0.25501 0.39389,-0.38251 0.1538,-0.0833 0.31882,-0.14853 0.46141,-0.2498 0.14272,-0.10136 0.25882,-0.23575 0.38824,-0.35362 0.62855,-0.91383 1.6747,-1.25796 2.32861,-2.16616 0.62006,-0.9564 1.35471,-1.81868 1.77502,-2.9014 0.7494,-0.96331 1.26999,-2.10256 1.95496,-3.11486 0.43486,-1.13902 0.3693,-2.43804 0.98987,-3.52952 0.22318,-1.31992 0.68147,-2.32512 1.15968,-3.54367 0.45741,-1.36323 0.70351,-2.74874 0.9209,-4.17376 0.002,-1.50812 0.008,-3.01639 -0.0165,-4.52437 -0.0364,-1.47891 -0.0911,-2.96323 -0.3647,-4.42104 -0.27424,-1.37187 -0.57338,-2.72802 -0.75497,-4.11551 -0.35193,-1.38295 -0.69652,-2.76306 -1.08088,-4.13478 -0.63341,-1.5138 -1.44426,-2.946584 -2.02909,-4.482398 -0.68947,-1.34267 -1.30925,-2.719538 -2.03237,-4.045185 -0.70427,-1.114383 -1.30772,-2.260793 -1.97558,-3.393107 -0.60092,-0.986176 -1.23782,-1.939308 -1.89435,-2.887882 -0.90925,-1.34008 -1.81655,-2.677424 -2.85371,-3.926718 -0.91576,-1.215784 -1.78204,-2.473338 -2.8825,-3.535656 -0.92546,-0.838576 -1.7404,-1.783519 -2.64987,-2.638377 -0.77423,-0.828612 -1.46762,-1.726039 -2.22158,-2.572938 -1.07681,-0.991984 -2.01481,-2.106661 -3.13819,-3.047048 -1.09332,-0.872741 -2.16745,-1.779918 -3.15857,-2.768031 -1.00127,-0.909852 -1.94887,-1.895954 -3.09208,-2.631929 -1.27669,-0.855681 -2.63035,-1.594848 -4.10538,-2.050169 -1.78596,-0.484135 -3.64173,-0.702784 -5.49296,-0.627947 0,0 9.08162,-6.598179 9.08162,-6.598179 z"
       inkscape:connector-curvature="0" />
    <ellipse
       style="fill:#000000;fill-opacity:0;stroke-width:0.26458332"
       id="path3716"
       cx="-138.71725"
       cy="123.8869"
       rx="59.342262"
       ry="65.767853" />
    <ellipse
       style="fill:#000000;fill-opacity:0;stroke-width:0.26458332"
       id="path3718"
       cx="10.401211"
       cy="48.670143"
       rx="13.42502"
       ry="15.497525" />
    <ellipse
       style="fill:#000000;fill-opacity:0;stroke-width:0.26458332"
       id="path3720"
       cx="34.395832"
       cy="87.979164"
       rx="16.252975"
       ry="38.931545" />
    <path
       id="path3722"
       transform="scale(0.26458333)"
       style="fill:#000000;fill-opacity:0;stroke-width:0.99999994"
       d="M 380,153.94922 A 322.85716,425.71425 0 0 0 57.142578,579.66211 322.85716,425.71425 0 0 0 253.95703,971.0918 h 12.45508 c 0.62781,0 1.27284,-0.12479 1.89648,-0.0937 0.20789,0.0103 0.41336,0.0387 0.61524,0.0937 3.2578,0.88947 6.38534,2.20052 9.57812,3.30078 0.77622,0.41144 1.50176,0.93621 2.32813,1.23437 0.41734,0.15081 -1.35253,-1.05438 -0.91797,-0.96484 2.63282,0.54255 5.2418,1.2077 7.83008,1.93359 3.72576,1.04497 1.82813,1.31411 3.50586,0.99024 2.28338,-1.01658 9.24517,-1.47672 11.60351,-0.91406 3.23514,0.77183 6.3193,2.07935 9.47852,3.11914 0.79249,0.22261 1.56183,0.55284 2.37695,0.66796 0.94553,0.13342 1.92589,-0.10993 2.86328,0.0723 0.49729,0.0966 0.94743,0.20907 1.40235,0.32031 7.76742,-5.53359 14.8107,-10.57511 4.96289,-11.64844 -1.5483,-0.0922 -3.10786,-0.11006 -4.65039,-0.25585 -0.67613,-0.0639 1.35837,0.0476 2.03711,0.0703 0.9895,0.0337 1.83992,0.10127 2.61328,0.18554 1.01652,0.0606 2.03019,0.14647 3.02734,0.34766 6.48823,1.30938 13.51442,4.78583 19.42578,7.33399 7.59282,3.27299 11.85755,7.76233 13.47071,12.20117 7.14805,-1.0407 14.37787,-1.28335 21.58789,-0.88086 1.73147,0.1096 3.46754,0.11178 5.20117,0.0781 14.99487,-0.29149 22.1571,7.65907 21.36328,15.2461 A 322.85716,425.71425 0 0 0 702.85742,579.66211 322.85716,425.71425 0 0 0 380,153.94922 Z" />
    <ellipse
       style="fill:#000000;fill-opacity:0;stroke-width:0.26458332"
       id="path3724"
       cx="-266.8512"
       cy="110.65774"
       rx="58.964287"
       ry="56.318451" />
    <ellipse
       style="fill:#000000;fill-opacity:0;stroke-width:0.26458332"
       id="path3726"
       cx="-207.50893"
       cy="29.77083"
       rx="38.931545"
       ry="52.538689" />
    <path
       id="flowRoot3728"
       transform="scale(0.26458333)"
       style="font-style:normal;font-weight:normal;font-size:40px;line-height:1.25;font-family:sans-serif;letter-spacing:0px;word-spacing:0px;fill:#000000;fill-opacity:1;stroke:none"
       d="m 307.63477,977.70898 -0.17579,0.36719 c 1.23417,0.43282 2.46425,0.87892 3.69922,1.3086 l 1.22266,-1.67579 z" />
    <flowRoot
       xml:space="preserve"
       id="flowRoot3736"
       style="fill:black;fill-opacity:1;stroke:none;font-family:sans-serif;font-style:normal;font-weight:normal;font-size:40px;line-height:1.25;letter-spacing:0px;word-spacing:0px"><flowRegion
         id="flowRegion3738"><rect
           id="rect3740"
           width="122.90936"
           height="203.82764"
           x="542.85712"
           y="767.26349" /></flowRegion><flowPara
         id="flowPara3742"></flowPara></flowRoot>    <flowRoot
       xml:space="preserve"
       id="flowRoot3780"
       style="font-style:normal;font-weight:normal;font-size:40px;line-height:1.25;font-family:sans-serif;letter-spacing:0px;word-spacing:0px;fill:#000000;fill-opacity:1;stroke:none"
       transform="scale(0.26458333)"><flowRegion
         id="flowRegion3782"><rect
           id="rect3784"
           width="305.71429"
           height="54.285675"
           x="182.85715"
           y="993.94824" /></flowRegion><flowPara
         id="flowPara3786"> BARRETERO'S</flowPara></flowRoot>    <flowRoot
       xml:space="preserve"
       id="flowRoot3788"
       style="fill:black;fill-opacity:1;stroke:none;font-family:sans-serif;font-style:normal;font-weight:normal;font-size:40px;line-height:1.25;letter-spacing:0px;word-spacing:0px"><flowRegion
         id="flowRegion3790"><rect
           id="rect3792"
           width="106.274"
           height="47.561825"
           x="408.01172"
           y="1003.5293" /></flowRegion><flowPara
         id="flowPara3794"></flowPara></flowRoot>  </g>
</svg>
